<mxfile host="app.diagrams.net" agent="Mozilla/5.0 (Windows NT 10.0; Win64; x64) AppleWebKit/537.36 (KHTML, like Gecko) Chrome/131.0.0.0 Safari/537.36" version="26.0.4">
  <diagram name="Page-1" id="CKgTJ8Dl9J0ojm9Bxm4h">
    <mxGraphModel dx="2250" dy="1851" grid="1" gridSize="10" guides="1" tooltips="1" connect="1" arrows="1" fold="1" page="1" pageScale="1" pageWidth="850" pageHeight="1100" math="0" shadow="0">
      <root>
        <mxCell id="0" />
        <mxCell id="1" parent="0" />
        <mxCell id="tlrie01YJokZTGGLNNoM-2" value="&lt;h3&gt; &lt;font style=&quot;font-size: 23px; color: light-dark(rgb(0, 0, 0), rgb(255, 0, 1));&quot;&gt;Job Matching and Career Development Platform&lt;/font&gt;&lt;/h3&gt;&lt;ul&gt;&lt;li&gt;&lt;font style=&quot;font-size: 19px;&quot;&gt;&lt;strong style=&quot;&quot;&gt;&lt;font style=&quot;&quot;&gt;&lt;br&gt;&lt;/font&gt;&lt;/strong&gt;&lt;/font&gt;&lt;/li&gt;&lt;li&gt;&lt;font style=&quot;font-size: 19px;&quot;&gt;&lt;strong style=&quot;&quot;&gt;&lt;font style=&quot;&quot;&gt;Idea &lt;/font&gt;--&amp;gt;&lt;/strong&gt;&amp;nbsp;Create a platform that helps people find jobs based on their skills, preferences, and&amp;nbsp;&lt;/font&gt;&lt;/li&gt;&lt;li&gt;&lt;font style=&quot;font-size: 19px;&quot;&gt;career aspirations using&amp;nbsp;&lt;/font&gt;&lt;span style=&quot;font-size: 19px; background-color: transparent; color: light-dark(rgb(0, 0, 0), rgb(255, 255, 255));&quot;&gt;Machine&lt;/span&gt;&lt;strong style=&quot;font-size: 19px; background-color: transparent; color: light-dark(rgb(0, 0, 0), rgb(255, 255, 255));&quot;&gt; &lt;/strong&gt;&lt;span style=&quot;font-size: 19px; background-color: transparent; color: light-dark(rgb(0, 0, 0), rgb(255, 255, 255));&quot;&gt;Learning&lt;/span&gt;&lt;span style=&quot;font-size: 19px; background-color: transparent; color: light-dark(rgb(0, 0, 0), rgb(255, 255, 255));&quot;&gt; to recommend job opportunities and career resources.&lt;/span&gt;&lt;/li&gt;&lt;li&gt;&lt;span style=&quot;font-size: 19px; background-color: transparent; color: light-dark(rgb(0, 0, 0), rgb(255, 255, 255));&quot;&gt;&lt;br&gt;&lt;/span&gt;&lt;/li&gt;&lt;li&gt;&lt;font style=&quot;font-size: 16px;&quot;&gt;Tech Stack: MERN, ML (recommendation engine), user profile management.&lt;/font&gt;&lt;/li&gt;&lt;/ul&gt;" style="text;html=1;align=center;verticalAlign=middle;resizable=0;points=[];autosize=1;strokeColor=none;fillColor=none;fontFamily=Architects Daughter;fontSource=https%3A%2F%2Ffonts.googleapis.com%2Fcss%3Ffamily%3DArchitects%2BDaughter;" vertex="1" parent="1">
          <mxGeometry x="-700" y="-1090" width="940" height="190" as="geometry" />
        </mxCell>
        <mxCell id="tlrie01YJokZTGGLNNoM-3" value="" style="shape=cylinder3;whiteSpace=wrap;html=1;boundedLbl=1;backgroundOutline=1;size=15;sketch=1;hachureGap=4;jiggle=2;curveFitting=1;fontFamily=Architects Daughter;fontSource=https%3A%2F%2Ffonts.googleapis.com%2Fcss%3Ffamily%3DArchitects%2BDaughter;" vertex="1" parent="1">
          <mxGeometry x="-230" y="-820" width="60" height="80" as="geometry" />
        </mxCell>
        <mxCell id="tlrie01YJokZTGGLNNoM-4" value="Actor" style="shape=umlActor;verticalLabelPosition=bottom;verticalAlign=top;html=1;outlineConnect=0;sketch=1;hachureGap=4;jiggle=2;curveFitting=1;fontFamily=Architects Daughter;fontSource=https%3A%2F%2Ffonts.googleapis.com%2Fcss%3Ffamily%3DArchitects%2BDaughter;" vertex="1" parent="1">
          <mxGeometry x="-610" y="-810" width="30" height="60" as="geometry" />
        </mxCell>
        <mxCell id="tlrie01YJokZTGGLNNoM-10" value="APP" style="text;html=1;align=center;verticalAlign=middle;whiteSpace=wrap;rounded=0;fontFamily=Architects Daughter;fontSource=https%3A%2F%2Ffonts.googleapis.com%2Fcss%3Ffamily%3DArchitects%2BDaughter;" vertex="1" parent="1">
          <mxGeometry x="-230" y="-780" width="60" height="30" as="geometry" />
        </mxCell>
        <mxCell id="tlrie01YJokZTGGLNNoM-11" value="" style="curved=1;endArrow=classic;html=1;rounded=0;sketch=1;hachureGap=4;jiggle=2;curveFitting=1;fontFamily=Architects Daughter;fontSource=https%3A%2F%2Ffonts.googleapis.com%2Fcss%3Ffamily%3DArchitects%2BDaughter;" edge="1" parent="1">
          <mxGeometry width="50" height="50" relative="1" as="geometry">
            <mxPoint x="-570" y="-770" as="sourcePoint" />
            <mxPoint x="-250" y="-780" as="targetPoint" />
            <Array as="points">
              <mxPoint x="-375" y="-730" />
              <mxPoint x="-425" y="-780" />
            </Array>
          </mxGeometry>
        </mxCell>
        <mxCell id="tlrie01YJokZTGGLNNoM-13" value="&lt;font style=&quot;font-size: 17px; color: light-dark(rgb(0, 0, 0), rgb(255, 0, 0));&quot;&gt;&lt;b&gt;USER I/P&lt;/b&gt;&lt;/font&gt;&lt;div&gt;&lt;font style=&quot;font-size: 19px;&quot;&gt;What is the most demanding and trending skills nowadays in terms of IT&lt;/font&gt;&lt;/div&gt;&lt;div&gt;&lt;br&gt;&lt;/div&gt;" style="whiteSpace=wrap;html=1;aspect=fixed;sketch=1;hachureGap=4;jiggle=2;curveFitting=1;fontFamily=Architects Daughter;fontSource=https%3A%2F%2Ffonts.googleapis.com%2Fcss%3Ffamily%3DArchitects%2BDaughter;" vertex="1" parent="1">
          <mxGeometry x="-610" y="-640" width="200" height="200" as="geometry" />
        </mxCell>
        <mxCell id="tlrie01YJokZTGGLNNoM-15" style="edgeStyle=orthogonalEdgeStyle;rounded=0;sketch=1;hachureGap=4;jiggle=2;curveFitting=1;orthogonalLoop=1;jettySize=auto;html=1;exitX=0.5;exitY=1;exitDx=0;exitDy=0;fontFamily=Architects Daughter;fontSource=https%3A%2F%2Ffonts.googleapis.com%2Fcss%3Ffamily%3DArchitects%2BDaughter;" edge="1" parent="1" source="tlrie01YJokZTGGLNNoM-13" target="tlrie01YJokZTGGLNNoM-13">
          <mxGeometry relative="1" as="geometry" />
        </mxCell>
        <mxCell id="tlrie01YJokZTGGLNNoM-16" value="" style="shape=flexArrow;endArrow=classic;html=1;rounded=0;sketch=1;hachureGap=4;jiggle=2;curveFitting=1;fontFamily=Architects Daughter;fontSource=https%3A%2F%2Ffonts.googleapis.com%2Fcss%3Ffamily%3DArchitects%2BDaughter;" edge="1" parent="1">
          <mxGeometry width="50" height="50" relative="1" as="geometry">
            <mxPoint x="-390" y="-550" as="sourcePoint" />
            <mxPoint x="-200" y="-550" as="targetPoint" />
          </mxGeometry>
        </mxCell>
        <mxCell id="tlrie01YJokZTGGLNNoM-17" value="AI MOdel" style="shape=cylinder3;whiteSpace=wrap;html=1;boundedLbl=1;backgroundOutline=1;size=15;sketch=1;hachureGap=4;jiggle=2;curveFitting=1;fontFamily=Architects Daughter;fontSource=https%3A%2F%2Ffonts.googleapis.com%2Fcss%3Ffamily%3DArchitects%2BDaughter;" vertex="1" parent="1">
          <mxGeometry x="-160" y="-585" width="60" height="80" as="geometry" />
        </mxCell>
        <mxCell id="tlrie01YJokZTGGLNNoM-19" value="" style="shape=flexArrow;endArrow=classic;html=1;rounded=0;sketch=1;hachureGap=4;jiggle=2;curveFitting=1;fontFamily=Architects Daughter;fontSource=https%3A%2F%2Ffonts.googleapis.com%2Fcss%3Ffamily%3DArchitects%2BDaughter;" edge="1" parent="1">
          <mxGeometry width="50" height="50" relative="1" as="geometry">
            <mxPoint x="-50" y="-545" as="sourcePoint" />
            <mxPoint x="60" y="-550" as="targetPoint" />
          </mxGeometry>
        </mxCell>
        <mxCell id="tlrie01YJokZTGGLNNoM-20" value="&lt;font style=&quot;font-size: 17px; color: light-dark(rgb(0, 0, 0), rgb(255, 0, 0));&quot;&gt;&lt;b&gt;MODEL I/P&lt;/b&gt;&lt;/font&gt;&lt;div&gt;&lt;span style=&quot;font-size: 19px;&quot;&gt;Gives the trending suggestions like--&amp;gt; cyber security, GenAI etc.&lt;/span&gt;&lt;/div&gt;&lt;div&gt;&lt;br&gt;&lt;/div&gt;" style="whiteSpace=wrap;html=1;aspect=fixed;sketch=1;hachureGap=4;jiggle=2;curveFitting=1;fontFamily=Architects Daughter;fontSource=https%3A%2F%2Ffonts.googleapis.com%2Fcss%3Ffamily%3DArchitects%2BDaughter;" vertex="1" parent="1">
          <mxGeometry x="92.5" y="-650" width="175" height="175" as="geometry" />
        </mxCell>
        <mxCell id="tlrie01YJokZTGGLNNoM-22" value="" style="shape=flexArrow;endArrow=classic;html=1;rounded=0;sketch=1;hachureGap=4;jiggle=2;curveFitting=1;fontFamily=Architects Daughter;fontSource=https%3A%2F%2Ffonts.googleapis.com%2Fcss%3Ffamily%3DArchitects%2BDaughter;" edge="1" parent="1">
          <mxGeometry width="50" height="50" relative="1" as="geometry">
            <mxPoint x="300" y="-550" as="sourcePoint" />
            <mxPoint x="450" y="-550" as="targetPoint" />
          </mxGeometry>
        </mxCell>
        <mxCell id="tlrie01YJokZTGGLNNoM-23" value="&lt;font style=&quot;font-size: 26px;&quot;&gt;?&lt;/font&gt;" style="rounded=0;whiteSpace=wrap;html=1;sketch=1;hachureGap=4;jiggle=2;curveFitting=1;fontFamily=Architects Daughter;fontSource=https%3A%2F%2Ffonts.googleapis.com%2Fcss%3Ffamily%3DArchitects%2BDaughter;" vertex="1" parent="1">
          <mxGeometry x="490" y="-585" width="120" height="60" as="geometry" />
        </mxCell>
        <mxCell id="tlrie01YJokZTGGLNNoM-24" value="&lt;font style=&quot;font-size: 24px; color: light-dark(rgb(0, 0, 0), rgb(255, 255, 0));&quot;&gt;AI RESUME CHECKER ATS FRIENDLY&lt;/font&gt;" style="text;html=1;align=center;verticalAlign=middle;resizable=0;points=[];autosize=1;strokeColor=none;fillColor=none;fontFamily=Architects Daughter;fontSource=https%3A%2F%2Ffonts.googleapis.com%2Fcss%3Ffamily%3DArchitects%2BDaughter;" vertex="1" parent="1">
          <mxGeometry x="-590" y="-190" width="440" height="40" as="geometry" />
        </mxCell>
        <mxCell id="tlrie01YJokZTGGLNNoM-27" value="&lt;strong&gt;&lt;font style=&quot;font-size: 26px;&quot;&gt;1). Understand ATS Parsing&lt;/font&gt;&lt;/strong&gt;&lt;div&gt;&lt;span style=&quot;font-size: 20px;&quot;&gt;&lt;b&gt;&lt;br&gt;&lt;/b&gt;&lt;/span&gt;&lt;div&gt;&lt;font style=&quot;font-size: 26px;&quot;&gt;&lt;strong style=&quot;&quot;&gt;&lt;font style=&quot;&quot;&gt;2). Data Collection for Training the Model&lt;/font&gt;&lt;/strong&gt;&lt;strong style=&quot;&quot;&gt;&lt;font style=&quot;&quot;&gt;&lt;/font&gt;&lt;/strong&gt;&lt;/font&gt;&lt;/div&gt;&lt;div&gt;&lt;strong&gt;&lt;font style=&quot;font-size: 17px;&quot;&gt;&lt;br&gt;&lt;/font&gt;&lt;/strong&gt;&lt;/div&gt;&lt;div&gt;&lt;b&gt;&lt;font style=&quot;font-size: 26px;&quot;&gt;&lt;font style=&quot;&quot;&gt;3). Feature Extraction from Resumes and Job Descriptions&lt;/font&gt;&lt;font style=&quot;&quot;&gt;&lt;/font&gt;&lt;/font&gt;&lt;/b&gt;&lt;/div&gt;&lt;div&gt;&lt;b&gt;&lt;font style=&quot;font-size: 18px;&quot;&gt;&lt;br&gt;&lt;/font&gt;&lt;/b&gt;&lt;/div&gt;&lt;div&gt;&lt;font style=&quot;font-size: 26px;&quot;&gt;&lt;strong style=&quot;&quot;&gt;4). Keyword Matching and Relevance&lt;/strong&gt;&lt;/font&gt;&lt;/div&gt;&lt;/div&gt;" style="text;html=1;align=center;verticalAlign=middle;resizable=0;points=[];autosize=1;strokeColor=none;fillColor=none;fontFamily=Architects Daughter;fontSource=https%3A%2F%2Ffonts.googleapis.com%2Fcss%3Ffamily%3DArchitects%2BDaughter;" vertex="1" parent="1">
          <mxGeometry x="-745" y="-130" width="750" height="200" as="geometry" />
        </mxCell>
        <mxCell id="tlrie01YJokZTGGLNNoM-29" value="&lt;font style=&quot;color: light-dark(rgb(0, 0, 0), rgb(51, 51, 255)); font-size: 34px;&quot;&gt;FEATIURES&lt;/font&gt;" style="text;html=1;align=center;verticalAlign=middle;resizable=0;points=[];autosize=1;strokeColor=none;fillColor=none;fontFamily=Architects Daughter;fontSource=https%3A%2F%2Ffonts.googleapis.com%2Fcss%3Ffamily%3DArchitects%2BDaughter;" vertex="1" parent="1">
          <mxGeometry x="-770" y="-290" width="200" height="50" as="geometry" />
        </mxCell>
      </root>
    </mxGraphModel>
  </diagram>
</mxfile>
